<svg width="2798" height="467" viewBox="0 0 2798 467" fill="none" xmlns="http://www.w3.org/2000/svg">
<path d="M700.8 345.5C692.4 345.5 685.6 343.1 680.4 338.3C675.4 333.3 672.9 326.7 672.9 318.5V177.2H630.6C621.8 177.2 615.2 175.4 610.8 171.8C606.6 168 604.5 162.3 604.5 154.7C604.5 147.1 606.6 141.5 610.8 137.9C615.2 134.3 621.8 132.5 630.6 132.5H771C779.8 132.5 786.3 134.3 790.5 137.9C794.9 141.5 797.1 147.1 797.1 154.7C797.1 162.3 794.9 168 790.5 171.8C786.3 175.4 779.8 177.2 771 177.2H728.7V318.5C728.7 326.7 726.1 333.3 720.9 338.3C715.9 343.1 709.2 345.5 700.8 345.5Z" fill="#8C32FF"/>
<path d="M1335.1 147.8C1337.1 142.2 1340.3 137.9 1344.7 134.9C1349.3 131.9 1354.3 130.4 1359.7 130.4C1366.3 130.4 1372 132.5 1376.8 136.7C1381.8 140.9 1384.3 146.6 1384.3 153.8C1384.3 157 1383.5 161 1381.9 165.8L1321.6 329C1319.6 334.6 1315.9 339 1310.5 342.2C1305.3 345.2 1299.5 346.7 1293.1 346.7C1286.7 346.7 1280.9 345.2 1275.7 342.2C1270.5 339 1266.9 334.6 1264.9 329L1225.9 217.7L1185.1 329C1182.9 334.6 1179.2 339 1174 342.2C1168.8 345.2 1163.1 346.7 1156.9 346.7C1150.5 346.7 1144.7 345.2 1139.5 342.2C1134.3 339 1130.7 334.6 1128.7 329L1068.1 165.8C1066.7 161.8 1066 158 1066 154.4C1066 147 1068.6 141.2 1073.8 137C1079.2 132.6 1085.4 130.4 1092.4 130.4C1098 130.4 1103.1 131.9 1107.7 134.9C1112.5 137.7 1115.9 142 1117.9 147.8L1159 266L1202.5 147.8C1204.5 142.2 1207.7 137.9 1212.1 134.9C1216.7 131.9 1221.7 130.4 1227.1 130.4C1232.5 130.4 1237.4 131.9 1241.8 134.9C1246.2 137.9 1249.4 142.3 1251.4 148.1L1292.2 268.7L1335.1 147.8ZM1438.03 344C1429.83 344 1423.53 341.8 1419.13 337.4C1414.73 333 1412.53 326.7 1412.53 318.5V158C1412.53 149.8 1414.73 143.5 1419.13 139.1C1423.53 134.7 1429.83 132.5 1438.03 132.5H1541.83C1550.43 132.5 1556.93 134.3 1561.33 137.9C1565.73 141.5 1567.93 146.7 1567.93 153.5C1567.93 167.9 1559.23 175.1 1541.83 175.1H1466.23V215.3H1535.83C1553.23 215.3 1561.93 222.4 1561.93 236.6C1561.93 243.4 1559.73 248.6 1555.33 252.2C1550.93 255.8 1544.43 257.6 1535.83 257.6H1466.23V301.4H1541.83C1559.23 301.4 1567.93 308.6 1567.93 323C1567.93 329.8 1565.73 335 1561.33 338.6C1556.93 342.2 1550.43 344 1541.83 344H1438.03ZM1617.03 344C1608.83 344 1602.53 341.8 1598.13 337.4C1593.73 333 1591.53 326.7 1591.53 318.5V158C1591.53 149.8 1593.73 143.5 1598.13 139.1C1602.53 134.7 1608.83 132.5 1617.03 132.5H1677.63C1701.03 132.5 1721.13 136.8 1737.93 145.4C1754.93 153.8 1767.93 165.9 1776.93 181.7C1785.93 197.5 1790.43 216.3 1790.43 238.1C1790.43 260.1 1785.93 279.1 1776.93 295.1C1768.13 310.9 1755.23 323 1738.23 331.4C1721.43 339.8 1701.23 344 1677.63 344H1617.03ZM1673.73 299.6C1694.33 299.6 1709.73 294.6 1719.93 284.6C1730.33 274.4 1735.53 258.9 1735.53 238.1C1735.53 217.3 1730.33 201.9 1719.93 191.9C1709.73 181.9 1694.33 176.9 1673.73 176.9H1646.73V299.6H1673.73ZM1849.06 344C1840.86 344 1834.56 341.8 1830.16 337.4C1825.76 333 1823.56 326.7 1823.56 318.5V158C1823.56 149.8 1825.76 143.5 1830.16 139.1C1834.56 134.7 1840.86 132.5 1849.06 132.5H1909.66C1933.06 132.5 1953.16 136.8 1969.96 145.4C1986.96 153.8 1999.96 165.9 2008.96 181.7C2017.96 197.5 2022.46 216.3 2022.46 238.1C2022.46 260.1 2017.96 279.1 2008.96 295.1C2000.16 310.9 1987.26 323 1970.26 331.4C1953.46 339.8 1933.26 344 1909.66 344H1849.06ZM1905.76 299.6C1926.36 299.6 1941.76 294.6 1951.96 284.6C1962.36 274.4 1967.56 258.9 1967.56 238.1C1967.56 217.3 1962.36 201.9 1951.96 191.9C1941.76 181.9 1926.36 176.9 1905.76 176.9H1878.76V299.6H1905.76Z" fill="#8C32FF"/>
<path d="M2077.19 345.8C2068.79 345.8 2061.79 343 2056.19 337.4C2050.79 331.8 2048.09 324.9 2048.09 316.7C2048.09 308.5 2050.79 301.6 2056.19 296C2061.79 290.4 2068.79 287.6 2077.19 287.6C2085.39 287.6 2092.19 290.4 2097.59 296C2103.19 301.6 2105.99 308.5 2105.99 316.7C2105.99 324.9 2103.19 331.8 2097.59 337.4C2092.19 343 2085.39 345.8 2077.19 345.8ZM2226.69 346.7C2205.49 346.7 2186.89 342.3 2170.89 333.5C2155.09 324.7 2142.79 312.1 2133.99 295.7C2125.39 279.3 2121.09 260.1 2121.09 238.1C2121.09 216.3 2125.39 197.2 2133.99 180.8C2142.79 164.4 2155.09 151.8 2170.89 143C2186.89 134.2 2205.49 129.8 2226.69 129.8C2252.09 129.8 2274.39 136.5 2293.59 149.9C2296.99 152.3 2299.39 154.9 2300.79 157.7C2302.39 160.5 2303.19 164.1 2303.19 168.5C2303.19 174.7 2301.39 180 2297.79 184.4C2294.39 188.6 2290.19 190.7 2285.19 190.7C2282.19 190.7 2279.49 190.3 2277.09 189.5C2274.69 188.5 2271.89 187 2268.69 185C2261.69 180.8 2255.09 177.8 2248.89 176C2242.69 174.2 2236.29 173.3 2229.69 173.3C2211.89 173.3 2198.59 178.7 2189.79 189.5C2181.19 200.1 2176.89 216.3 2176.89 238.1C2176.89 260.1 2181.19 276.5 2189.79 287.3C2198.59 297.9 2211.89 303.2 2229.69 303.2C2235.69 303.2 2241.49 302.3 2247.09 300.5C2252.69 298.5 2259.89 295.5 2268.69 291.5C2272.89 289.3 2275.99 287.8 2277.99 287C2279.99 286.2 2282.39 285.8 2285.19 285.8C2290.19 285.8 2294.39 288 2297.79 292.4C2301.39 296.6 2303.19 301.8 2303.19 308C2303.19 312.2 2302.39 315.8 2300.79 318.8C2299.39 321.6 2296.99 324.2 2293.59 326.6C2274.39 340 2252.09 346.7 2226.69 346.7ZM2425.63 346.7C2404.03 346.7 2385.23 342.3 2369.23 333.5C2353.43 324.5 2341.23 311.9 2332.63 295.7C2324.03 279.3 2319.73 260.1 2319.73 238.1C2319.73 216.1 2324.03 197 2332.63 180.8C2341.23 164.4 2353.43 151.8 2369.23 143C2385.23 134.2 2404.03 129.8 2425.63 129.8C2447.23 129.8 2465.93 134.2 2481.73 143C2497.73 151.8 2509.93 164.4 2518.33 180.8C2526.93 197 2531.23 216.1 2531.23 238.1C2531.23 260.1 2526.93 279.3 2518.33 295.7C2509.73 311.9 2497.43 324.5 2481.43 333.5C2465.63 342.3 2447.03 346.7 2425.63 346.7ZM2425.63 304.4C2441.63 304.4 2454.13 298.8 2463.13 287.6C2472.13 276.2 2476.63 259.7 2476.63 238.1C2476.63 216.5 2472.03 200.1 2462.83 188.9C2453.83 177.7 2441.43 172.1 2425.63 172.1C2409.63 172.1 2397.13 177.7 2388.13 188.9C2379.13 199.9 2374.63 216.3 2374.63 238.1C2374.63 259.9 2379.13 276.4 2388.13 287.6C2397.13 298.8 2409.63 304.4 2425.63 304.4ZM2751.7 131C2759.3 131 2765.5 133.5 2770.3 138.5C2775.1 143.5 2777.5 150 2777.5 158V321.2C2777.5 328.8 2775.3 334.8 2770.9 339.2C2766.5 343.6 2760.7 345.8 2753.5 345.8C2746.5 345.8 2740.7 343.6 2736.1 339.2C2731.7 334.8 2729.5 328.8 2729.5 321.2V233L2695.3 296C2691.9 302.4 2688.3 307 2684.5 309.8C2680.7 312.4 2676.2 313.7 2671 313.7C2665.8 313.7 2661.3 312.4 2657.5 309.8C2653.7 307 2650.1 302.4 2646.7 296L2612.8 234.8V321.2C2612.8 328.6 2610.5 334.6 2605.9 339.2C2601.5 343.6 2595.7 345.8 2588.5 345.8C2581.5 345.8 2575.7 343.6 2571.1 339.2C2566.7 334.8 2564.5 328.8 2564.5 321.2V158C2564.5 150 2566.9 143.5 2571.7 138.5C2576.7 133.5 2583 131 2590.6 131C2596 131 2600.9 132.6 2605.3 135.8C2609.7 138.8 2613.4 143.2 2616.4 149L2671.6 252.8L2726.5 149C2732.7 137 2741.1 131 2751.7 131Z" fill="#454545"/>
<path d="M924.5 348C922.914 348.009 921.342 347.706 919.875 347.109C918.407 346.512 917.071 345.632 915.946 344.52L822.33 251.157C810.587 239.339 804 223.383 804 206.756C804 190.129 810.587 174.173 822.33 162.355C834.164 150.601 850.196 144 866.909 144C883.622 144 899.653 150.601 911.488 162.355L924.5 175.315L937.512 162.355C949.347 150.601 965.378 144 982.091 144C998.804 144 1014.84 150.601 1026.67 162.355C1038.41 174.173 1045 190.129 1045 206.756C1045 223.383 1038.41 239.339 1026.67 251.157L933.054 344.52C931.929 345.632 930.593 346.512 929.125 347.109C927.658 347.706 926.086 348.009 924.5 348Z" fill="#FF5959"/>
<path d="M444.748 233.261C444.748 351.114 349.593 446.522 232.374 446.522C115.155 446.522 20 351.114 20 233.261C20 115.409 115.155 20.0005 232.374 20.0005C349.593 20.0005 444.748 115.409 444.748 233.261Z" stroke="#8C32FF" stroke-opacity="0.8" stroke-width="40"/>
<circle cx="318.739" cy="233.261" r="213.261" stroke="#616161" stroke-opacity="0.8" stroke-width="40"/>
<path d="M278.822 339.878C277.376 339.886 275.942 339.608 274.603 339.06C273.265 338.512 272.047 337.704 271.02 336.684L185.639 250.992C174.929 240.145 168.921 225.5 168.921 210.239C168.921 194.978 174.929 180.333 185.639 169.486C196.432 158.698 211.054 152.64 226.297 152.64C241.54 152.64 256.161 158.698 266.954 169.486L278.822 181.382L290.69 169.486C301.483 158.698 316.105 152.64 331.348 152.64C346.591 152.64 361.212 158.698 372.005 169.486C382.715 180.333 388.723 194.978 388.723 210.239C388.723 225.5 382.715 240.145 372.005 250.992L286.624 336.684C285.597 337.704 284.379 338.512 283.041 339.06C281.702 339.608 280.268 339.886 278.822 339.878Z" fill="#FF5959"/>
</svg>